<?xml version="1.0" encoding="UTF-8"?>
<svg id="svg-otdm" xmlns="http://www.w3.org/2000/svg" viewBox="0 0 500 500">
  <defs>
    <style>
      .cls-1 {
        stroke: #f2c11b;
        stroke-width: 18px;
      }

      .cls-1, .cls-2 {
        fill: none;
      }

      .cls-1, .cls-2, .cls-3, .cls-4 {
        stroke-miterlimit: 10;
      }

      .cls-2 {
        stroke-width: 26px;
      }

      .cls-2, .cls-3 {
        stroke: #fbeeee;
      }

      .cls-3, .cls-4 {
        fill: #f2c11b;
        stroke-width: 5px;
      }

      .cls-5 {
        fill: #339fd1;
      }

      .cls-4 {
        stroke: #fbeeee;
      }

      .cls-6 {
        fill: #9ed1d7;
      }
    </style>
  </defs>
  <polygon class="cls-6" points="250 0 0 250 125.02 250 250 125.53 250 0"/>
  <polygon class="cls-6" points="250 500 500 250 374.98 250 250 374.47 250 500"/>
  <polygon class="cls-5" points="250 0 500 250 374.98 250 250 125.53 250 0"/>
  <g>
    <polyline class="cls-2" points="50 375 125 375 375 125 451.67 125"/>
    <polyline class="cls-1" points="50 375 125 375 375 125 451.67 125"/>
  </g>
  <polygon class="cls-5" points="250 500 0 250 125.02 250 250 374.47 250 500"/>
  <polygon class="cls-3" points="495 125 430 162.53 430 87.47 495 125"/>
  <rect class="cls-4" x="18.18" y="343.18" width="63.64" height="63.64" transform="translate(-250.52 145.19) rotate(-45)"/>
</svg>